<svg xmlns="http://www.w3.org/2000/svg" version="1.1" xmlns:xlink="http://www.w3.org/1999/xlink" width="1000" height="1000"><g clip-path="url(#SvgjsClipPath1355)"><rect width="1000" height="1000" fill="#3077f7"></rect><g transform="matrix(8.403361344537815,0,0,8.403361344537815,0,0)"><svg xmlns="http://www.w3.org/2000/svg" version="1.1" xmlns:xlink="http://www.w3.org/1999/xlink" width="119" height="119"><svg width="119" height="119" viewBox="0 0 119 119" fill="none" xmlns="http://www.w3.org/2000/svg">
<rect width="119" height="119" fill="#3077F7"></rect>
<path d="M21.288 82C20.8187 82 20.4133 81.8507 20.072 81.552C19.7733 81.2533 19.624 80.8693 19.624 80.4V75.856C19.624 75.5573 19.7093 75.1093 19.88 74.512C20.0507 73.872 20.4987 73.2747 21.224 72.72L27.88 66.192C31.2933 63.5893 34.088 61.392 36.264 59.6C38.4827 57.7653 40.1253 56.144 41.192 54.736C42.2587 53.328 42.792 52.0053 42.792 50.768C42.792 49.3173 42.408 48.1227 41.64 47.184C40.9147 46.2027 39.6347 45.712 37.8 45.712C36.5627 45.712 35.5173 45.9893 34.664 46.544C33.8533 47.056 33.2347 47.7387 32.808 48.592C32.3813 49.4453 32.0827 50.32 31.912 51.216C31.7413 51.7707 31.4427 52.1547 31.016 52.368C30.632 52.5813 30.2053 52.688 29.736 52.688H21.736C21.352 52.688 21.032 52.56 20.776 52.304C20.52 52.048 20.392 51.728 20.392 51.344C20.4347 49.296 20.8613 47.376 21.672 45.584C22.5253 43.792 23.6987 42.2133 25.192 40.848C26.728 39.44 28.5413 38.352 30.632 37.584C32.7653 36.816 35.1547 36.432 37.8 36.432C41.4267 36.432 44.4987 37.008 47.016 38.16C49.576 39.312 51.5173 40.9333 52.84 43.024C54.1627 45.072 54.824 47.4827 54.824 50.256C54.824 52.3467 54.3547 54.3093 53.416 56.144C52.52 57.936 51.2187 59.664 49.512 61.328C47.848 62.9493 45.864 64.6347 43.56 66.384L37.672 72.336H54.12C54.5893 72.336 54.9733 72.4853 55.272 72.784C55.6133 73.0827 55.784 73.4667 55.784 73.936V80.4C55.784 80.8693 55.6133 81.2533 55.272 81.552C54.9733 81.8507 54.5893 82 54.12 82H21.288ZM60.737 82C60.353 82 60.0117 81.872 59.713 81.616C59.457 81.3173 59.329 80.9973 59.329 80.656C59.329 80.528 59.3503 80.4 59.393 80.272C59.4357 80.144 59.4997 80.016 59.585 79.888L73.537 59.152L60.609 39.312C60.481 39.056 60.417 38.8 60.417 38.544C60.417 38.2027 60.545 37.904 60.801 37.648C61.057 37.3493 61.377 37.2 61.761 37.2H71.041C71.681 37.2 72.1717 37.3707 72.513 37.712C72.8543 38.0107 73.089 38.288 73.217 38.544L80.897 50.192L88.641 38.544C88.8117 38.288 89.0677 38.0107 89.409 37.712C89.7503 37.3707 90.241 37.2 90.881 37.2H99.649C100.033 37.2 100.353 37.3493 100.609 37.648C100.908 37.904 101.057 38.2027 101.057 38.544C101.057 38.8427 100.972 39.0987 100.801 39.312L87.809 59.088L101.889 79.888C101.974 80.016 102.017 80.144 102.017 80.272C102.06 80.4 102.081 80.528 102.081 80.656C102.081 80.9973 101.953 81.3173 101.697 81.616C101.441 81.872 101.121 82 100.737 82H91.201C90.561 82 90.049 81.8507 89.665 81.552C89.3237 81.2107 89.089 80.9333 88.961 80.72L80.449 68.432L72.129 80.72C72.001 80.9333 71.7663 81.2107 71.425 81.552C71.0837 81.8507 70.593 82 69.953 82H60.737Z" fill="white"></path>
</svg></svg></g></g><defs><clipPath id="SvgjsClipPath1355"><rect width="1000" height="1000" x="0" y="0" rx="500" ry="500"></rect></clipPath></defs></svg>