<svg width="52" height="56" viewBox="0 0 52 56" fill="none" xmlns="http://www.w3.org/2000/svg">
<path d="M35.5797 4.07248C33.1473 1.44624 29.7499 0 26 0C22.2301 0 18.8214 1.43749 16.4003 4.04748C13.9528 6.68621 12.7604 10.2724 13.0404 14.1449C13.5953 21.7849 19.4089 27.9998 26 27.9998C32.5911 27.9998 38.3947 21.7861 38.9584 14.1474C39.2421 10.3099 38.0422 6.73121 35.5797 4.07248ZM47.9994 55.9997H4.00061C3.4247 56.0072 2.85437 55.8862 2.33111 55.6455C1.80784 55.4049 1.34481 55.0506 0.975688 54.6084C0.16321 53.6372 -0.164281 52.3109 0.0782128 50.9697C1.13318 45.1172 4.42559 40.201 9.60045 36.7498C14.1978 33.6861 20.0214 31.9998 26 31.9998C31.9786 31.9998 37.8022 33.6873 42.3996 36.7498C47.5744 40.1998 50.8668 45.116 51.9218 50.9685C52.1643 52.3097 51.8368 53.6359 51.0243 54.6072C50.6553 55.0495 50.1923 55.4041 49.6691 55.6449C49.1458 55.8858 48.5754 56.007 47.9994 55.9997Z" fill="#A04D2A"/>
</svg>
