<svg width="45" height="53" viewBox="0 0 45 53" fill="none" xmlns="http://www.w3.org/2000/svg">
<path d="M22.5 36.2632C10.0687 36.2632 0 41.2563 0 47.4211V53H45V47.4211C45 41.2563 34.9313 36.2632 22.5 36.2632ZM11.25 19.5263C11.25 22.4856 12.4353 25.3236 14.545 27.4161C16.6548 29.5087 19.5163 30.6842 22.5 30.6842C25.4837 30.6842 28.3452 29.5087 30.455 27.4161C32.5647 25.3236 33.75 22.4856 33.75 19.5263M21.0938 0C20.25 0 19.6875 0.58579 19.6875 1.39474V9.76316H16.875V2.78947C16.875 2.78947 10.5469 5.18842 10.5469 13.25C10.5469 13.25 8.4375 13.6405 8.4375 16.7368H36.5625C36.4219 13.6405 34.4531 13.25 34.4531 13.25C34.4531 5.18842 28.125 2.78947 28.125 2.78947V9.76316H25.3125V1.39474C25.3125 0.58579 24.7781 0 23.9062 0H21.0938Z" fill="#A04D2A"/>
</svg>
