<svg width="47" height="54" viewBox="0 0 47 54" fill="none" xmlns="http://www.w3.org/2000/svg">
<path d="M23.5 54C16.6948 52.425 11.0763 48.8358 6.64463 43.2324C2.21292 37.629 -0.00195704 31.4082 1.29748e-06 24.57V8.1L23.5 0L47 8.1V24.57C47 31.41 44.7851 37.6317 40.3554 43.2351C35.9256 48.8385 30.3072 52.4268 23.5 54ZM23.5 48.33C28.249 46.98 32.2146 44.3133 35.3969 40.3299C38.5792 36.3465 40.4396 31.9032 40.9781 27H23.5V5.7375L5.875 11.8125V25.785C5.875 26.1 5.92396 26.505 6.02188 27H23.5V48.33Z" fill="#A04D2A"/>
</svg>
